<?xml version="1.0" encoding="UTF-8"?>
<svg width="18px" height="9px" viewBox="0 0 18 9" version="1.1" xmlns="http://www.w3.org/2000/svg" xmlns:xlink="http://www.w3.org/1999/xlink">
    <!-- Generator: Sketch 48.2 (47327) - http://www.bohemiancoding.com/sketch -->
    <title>Group</title>
    <desc>Created with Sketch.</desc>
    <defs></defs>
    <g id="2.1-Tablet" stroke="none" stroke-width="1" fill="none" fill-rule="evenodd" transform="translate(-10.000000, -111.000000)">
        <g id="Group-12" transform="translate(10.000000, 111.000000)" fill="#000000">
            <g id="Group">
                <path d="M13.286025,2.87445621e-05 C11.5715567,2.87445621e-05 10.3964044,1.07126501 9.38076175,2.39848942 L9.98261022,3.27764108 C10.9130343,2.00488842 11.9018358,1.00349733 13.286025,1.00349733 C14.8759686,1.00349733 16.1980824,2.15600495 16.4422289,3.6594835 L12.4952912,3.6594835 L12.4952912,4.66299363 L17.4639794,4.66299363 C17.4840479,4.49845653 17.4946431,4.33105249 17.4946431,4.16123857 C17.4946431,1.86673542 15.6066629,2.87445621e-05 13.286025,2.87445621e-05" id="Fill-25"></path>
                <path d="M13.286025,7.31889671 C11.5932456,7.31889671 10.4763046,5.85692638 9.05841861,3.71191932 C7.64053259,1.56691226 6.30217283,2.87445621e-05 4.22630459,2.87445621e-05 C1.90562509,2.87445621e-05 0.0176449306,1.86673542 0.0176449306,4.16123857 C0.0176449306,6.45570016 1.90562509,8.32240684 4.22630459,8.32240684 C5.93773977,8.32240684 7.11181172,7.25486851 8.12620789,5.93088497 L7.5287637,5.04608255 C6.59858892,6.31825351 5.60999515,7.31889671 4.22630459,7.31889671 C2.4634308,7.31889671 1.02925727,5.90238183 1.02925727,4.16123857 C1.02925727,2.42009531 2.4634308,1.00349733 4.22630459,1.00349733 C5.91904237,1.00349733 6.97573621,2.39101046 8.45075317,4.60698454 C9.92577013,6.82295861 11.2101152,8.32240684 13.286025,8.32240684 C15.0700476,8.32240684 16.5981652,7.21909415 17.2095701,5.66646221 L16.0958284,5.66646221 C15.5535623,6.64994535 14.4974086,7.31889671 13.286025,7.31889671" id="Fill-26"></path>
            </g>
        </g>
    </g>
</svg>