<?xml version="1.0" encoding="UTF-8"?>
<svg width="13px" height="11px" viewBox="0 0 13 11" version="1.1" xmlns="http://www.w3.org/2000/svg" xmlns:xlink="http://www.w3.org/1999/xlink">
    <!-- Generator: Sketch 48.2 (47327) - http://www.bohemiancoding.com/sketch -->
    <title>Group 8</title>
    <desc>Created with Sketch.</desc>
    <defs></defs>
    <g id="2.1-Tablet" stroke="none" stroke-width="1" fill="none" fill-rule="evenodd" transform="translate(-12.000000, -174.000000)">
        <g id="Group-12" transform="translate(10.000000, 111.000000)" fill="#1E1E1E" fill-rule="nonzero">
            <g id="Group-8" transform="translate(1.000000, 62.000000)">
                <polygon id="Line" points="10.4615385 4.69230769 11.4615385 4.69230769 11.4615385 11.4615385 10.4615385 11.4615385"></polygon>
                <polygon id="Line-2" points="8.15384615 5.69230769 8.15384615 4.69230769 13.7692308 4.69230769 13.7692308 5.69230769"></polygon>
                <polygon id="Line-3" points="12.7692308 4.69230769 13.7692308 4.69230769 13.7692308 6.84615385 12.7692308 6.84615385"></polygon>
                <polygon id="Line-3" points="8.15384615 4.69230769 9.15384615 4.69230769 9.15384615 6.84615385 8.15384615 6.84615385"></polygon>
                <polygon id="Line-2" points="9.30769231 11.4615385 9.30769231 10.4615385 12.6153846 10.4615385 12.6153846 11.4615385"></polygon>
                <g id="Group-9">
                    <g id="Group-7">
                        <polygon id="Line" points="4.69230769 1.38461538 5.69230769 1.38461538 5.69230769 10.4615385 4.69230769 10.4615385"></polygon>
                        <polygon id="Line-2" points="1.23076923 2.23076923 1.23076923 1.23076923 9.00076921 1.23076923 9.00076921 2.23076923"></polygon>
                        <polygon id="Line-3" points="8.15384615 1.23076923 9.15384615 1.23076923 9.15384615 3.38461538 8.15384615 3.38461538"></polygon>
                        <polygon id="Line-3" points="1.23076923 1.23076923 2.23076923 1.23076923 2.23076923 3.38461538 1.23076923 3.38461538"></polygon>
                        <polygon id="Line-2" points="3.53846154 11.4615385 3.53846154 10.4615385 6.84615385 10.4615385 6.84615385 11.4615385"></polygon>
                    </g>
                </g>
            </g>
        </g>
    </g>
</svg>